<svg width="885" height="637" viewBox="0 0 885 637" fill="none" xmlns="http://www.w3.org/2000/svg">
<path fill-rule="evenodd" clip-rule="evenodd" d="M881.912 548.371H883.285C884.043 548.371 884.657 548.986 884.657 549.744V588.864C884.657 589.623 884.043 590.237 883.285 590.237H881.912V548.371Z" fill="white"/>
<path fill-rule="evenodd" clip-rule="evenodd" d="M811.907 634.161V635.534C811.907 636.292 811.292 636.907 810.534 636.907H782.395C781.637 636.907 781.022 636.292 781.022 635.534V634.161H811.907Z" fill="white"/>
<path fill-rule="evenodd" clip-rule="evenodd" d="M768.67 634.161V635.534C768.67 636.292 768.055 636.907 767.297 636.907H739.158C738.4 636.907 737.785 636.292 737.785 635.534V634.161H768.67Z" fill="white"/>
<path fill-rule="evenodd" clip-rule="evenodd" d="M48.7173 6.10352e-05L834.556 6.10352e-05C861.089 6.10352e-05 882.599 21.5094 882.599 48.0426V586.805C882.599 613.339 861.089 634.848 834.556 634.848H48.7173C22.1842 634.848 0.674805 613.339 0.674805 586.805V48.0426C0.674805 21.5094 22.1842 6.10352e-05 48.7173 6.10352e-05Z" fill="#F0F0F0"/>
<path fill-rule="evenodd" clip-rule="evenodd" d="M49.7465 3.77448H833.526C858.543 3.77448 878.823 24.0547 878.823 49.0717V585.776C878.823 610.793 858.543 631.073 833.526 631.073H49.7465C24.7295 631.073 4.44922 610.793 4.44922 585.776V49.0717C4.44922 24.0547 24.7295 3.77448 49.7465 3.77448Z" fill="white"/>
<path fill-rule="evenodd" clip-rule="evenodd" d="M863.382 321.542C865.656 321.542 867.5 319.698 867.5 317.424C867.5 315.15 865.656 313.306 863.382 313.306C861.107 313.306 859.264 315.15 859.264 317.424C859.264 319.698 861.107 321.542 863.382 321.542Z" fill="#F0F0F0"/>
<path fill-rule="evenodd" clip-rule="evenodd" d="M863.382 319.483C864.519 319.483 865.441 318.561 865.441 317.424C865.441 316.287 864.519 315.365 863.382 315.365C862.245 315.365 861.323 316.287 861.323 317.424C861.323 318.561 862.245 319.483 863.382 319.483Z" fill="#E4E4E4"/>
</svg>
