<svg width="1137" height="1142" viewBox="0 0 1137 1142" fill="none" xmlns="http://www.w3.org/2000/svg">
<path fill-rule="evenodd" clip-rule="evenodd" d="M1133.24 983.253H1135.01C1135.98 983.253 1136.77 984.355 1136.77 985.714V1055.86C1136.77 1057.22 1135.98 1058.32 1135.01 1058.32H1133.24V983.253Z" fill="white"/>
<path fill-rule="evenodd" clip-rule="evenodd" d="M1043.22 1137.08V1139.54C1043.22 1140.9 1042.43 1142 1041.45 1142H1005.27C1004.29 1142 1003.5 1140.9 1003.5 1139.54V1137.08H1043.22Z" fill="white"/>
<path fill-rule="evenodd" clip-rule="evenodd" d="M987.616 1137.08V1139.54C987.616 1140.9 986.826 1142 985.851 1142H949.665C948.69 1142 947.899 1140.9 947.899 1139.54V1137.08H987.616Z" fill="white"/>
<path fill-rule="evenodd" clip-rule="evenodd" d="M61.7811 0L1072.34 0C1106.46 0 1134.12 38.5672 1134.12 86.1423V1052.17C1134.12 1099.74 1106.46 1138.31 1072.34 1138.31H61.7811C27.6603 1138.31 0 1099.74 0 1052.17V86.1423C0 38.5672 27.6603 0 61.7811 0Z" fill="#F0F0F0"/>
<path fill-rule="evenodd" clip-rule="evenodd" d="M63.1047 6.76758H1071.02C1103.19 6.76758 1129.27 43.1309 1129.27 87.9874V1050.32C1129.27 1095.18 1103.19 1131.54 1071.02 1131.54H63.1047C30.9336 1131.54 4.85388 1095.18 4.85388 1050.32V87.9874C4.85388 43.1309 30.9336 6.76758 63.1047 6.76758Z" fill="white"/>
<path fill-rule="evenodd" clip-rule="evenodd" d="M1109.41 576.538C1112.34 576.538 1114.71 573.232 1114.71 569.154C1114.71 565.076 1112.34 561.771 1109.41 561.771C1106.49 561.771 1104.12 565.076 1104.12 569.154C1104.12 573.232 1106.49 576.538 1109.41 576.538Z" fill="#F0F0F0"/>
<path fill-rule="evenodd" clip-rule="evenodd" d="M1109.41 572.846C1110.88 572.846 1112.06 571.193 1112.06 569.154C1112.06 567.115 1110.88 565.462 1109.41 565.462C1107.95 565.462 1106.77 567.115 1106.77 569.154C1106.77 571.193 1107.95 572.846 1109.41 572.846Z" fill="#E4E4E4"/>
</svg>
