<svg width="142" height="312" viewBox="0 0 142 312" fill="none" xmlns="http://www.w3.org/2000/svg">
<circle cx="2.32442" cy="2.32435" r="2.32435" fill="white" fill-opacity="0.22"/>
<circle cx="36.4142" cy="2.32435" r="2.32435" fill="white" fill-opacity="0.22"/>
<circle cx="70.505" cy="2.32435" r="2.32435" fill="white" fill-opacity="0.22"/>
<circle cx="104.596" cy="2.32435" r="2.32435" fill="white" fill-opacity="0.22"/>
<circle cx="138.687" cy="2.32435" r="2.32435" fill="white" fill-opacity="0.22"/>
<circle cx="2.32435" cy="36.4148" r="2.32435" fill="white" fill-opacity="0.22"/>
<circle cx="36.4142" cy="36.4149" r="2.32435" fill="white" fill-opacity="0.22"/>
<circle cx="70.505" cy="36.4149" r="2.32435" fill="white" fill-opacity="0.22"/>
<circle cx="104.596" cy="36.4149" r="2.32435" fill="white" fill-opacity="0.22"/>
<circle cx="138.687" cy="36.4149" r="2.32435" fill="white" fill-opacity="0.22"/>
<circle cx="2.32435" cy="70.5052" r="2.32435" fill="white" fill-opacity="0.22"/>
<circle cx="36.4142" cy="70.5053" r="2.32435" fill="white" fill-opacity="0.22"/>
<circle cx="70.505" cy="70.5053" r="2.32435" fill="white" fill-opacity="0.22"/>
<circle cx="104.596" cy="70.5053" r="2.32435" fill="white" fill-opacity="0.22"/>
<circle cx="138.687" cy="70.5053" r="2.32435" fill="white" fill-opacity="0.22"/>
<circle cx="2.32435" cy="104.596" r="2.32435" fill="white" fill-opacity="0.22"/>
<circle cx="36.4142" cy="104.596" r="2.32435" fill="white" fill-opacity="0.22"/>
<circle cx="70.505" cy="104.596" r="2.32435" fill="white" fill-opacity="0.22"/>
<circle cx="104.596" cy="104.596" r="2.32435" fill="white" fill-opacity="0.22"/>
<circle cx="138.686" cy="104.596" r="2.32435" fill="white" fill-opacity="0.22"/>
<circle cx="2.32435" cy="138.686" r="2.32435" fill="white" fill-opacity="0.22"/>
<circle cx="36.4142" cy="138.686" r="2.32435" fill="white" fill-opacity="0.22"/>
<circle cx="70.505" cy="138.686" r="2.32435" fill="white" fill-opacity="0.22"/>
<circle cx="104.596" cy="138.686" r="2.32435" fill="white" fill-opacity="0.22"/>
<circle cx="138.686" cy="138.686" r="2.32435" fill="white" fill-opacity="0.22"/>
<circle cx="2.32435" cy="172.777" r="2.32435" fill="white" fill-opacity="0.22"/>
<circle cx="36.4142" cy="172.776" r="2.32435" fill="white" fill-opacity="0.22"/>
<circle cx="70.505" cy="172.776" r="2.32435" fill="white" fill-opacity="0.22"/>
<circle cx="104.596" cy="172.776" r="2.32435" fill="white" fill-opacity="0.22"/>
<circle cx="138.687" cy="172.776" r="2.32435" fill="white" fill-opacity="0.22"/>
<circle cx="2.32435" cy="206.867" r="2.32435" fill="white" fill-opacity="0.22"/>
<circle cx="36.4142" cy="206.867" r="2.32435" fill="white" fill-opacity="0.22"/>
<circle cx="70.505" cy="206.867" r="2.32435" fill="white" fill-opacity="0.22"/>
<circle cx="104.596" cy="206.867" r="2.32435" fill="white" fill-opacity="0.22"/>
<circle cx="138.687" cy="206.867" r="2.32435" fill="white" fill-opacity="0.22"/>
<circle cx="2.32435" cy="240.958" r="2.32435" fill="white" fill-opacity="0.22"/>
<circle cx="36.4142" cy="240.958" r="2.32435" fill="white" fill-opacity="0.22"/>
<circle cx="70.505" cy="240.958" r="2.32435" fill="white" fill-opacity="0.22"/>
<circle cx="104.596" cy="240.958" r="2.32435" fill="white" fill-opacity="0.22"/>
<circle cx="138.686" cy="240.958" r="2.32435" fill="white" fill-opacity="0.22"/>
<circle cx="2.32435" cy="275.048" r="2.32435" fill="white" fill-opacity="0.22"/>
<circle cx="36.4142" cy="275.048" r="2.32435" fill="white" fill-opacity="0.22"/>
<circle cx="70.505" cy="275.048" r="2.32435" fill="white" fill-opacity="0.22"/>
<circle cx="104.596" cy="275.048" r="2.32435" fill="white" fill-opacity="0.22"/>
<circle cx="138.687" cy="275.048" r="2.32435" fill="white" fill-opacity="0.22"/>
<circle cx="2.32435" cy="309.138" r="2.32435" fill="white" fill-opacity="0.22"/>
<circle cx="36.4142" cy="309.138" r="2.32435" fill="white" fill-opacity="0.22"/>
<circle cx="70.505" cy="309.138" r="2.32435" fill="white" fill-opacity="0.22"/>
<circle cx="104.596" cy="309.138" r="2.32435" fill="white" fill-opacity="0.22"/>
<circle cx="138.687" cy="309.138" r="2.32435" fill="white" fill-opacity="0.22"/>
</svg>
