<svg width="58" height="58" viewBox="0 0 58 58" fill="none" xmlns="http://www.w3.org/2000/svg">
<circle cx="29" cy="29" r="29" fill="url(#paint0_linear_101_285)"/>
<path d="M42.4336 20H29.8594C29.4062 20 29.1797 20.5629 29.5195 20.9007L33.4844 24.8411L30.0859 28.2185L26.4609 24.6159C25.2148 23.3775 22.8359 23.3775 21.5898 24.6159L15.0195 31.1457C13.6602 32.4967 13.6602 34.6358 15.0195 35.9868C15.6992 36.6623 16.6055 37 17.3984 37C18.1914 37 19.2109 36.6623 19.7773 35.9868L23.9688 31.8212L27.5938 35.4238C28.9531 36.7748 31.1055 36.7748 32.4648 35.4238L38.3555 29.5695L42.0938 33.2848C42.4336 33.6225 43 33.3974 43 32.947V20.5629C43 20.2252 42.7734 20 42.4336 20Z" fill="white"/>
<defs>
<linearGradient id="paint0_linear_101_285" x1="0.830728" y1="-17.9249" x2="55.041" y2="14.6096" gradientUnits="userSpaceOnUse">
<stop stop-color="#CE5BEB"/>
<stop offset="1" stop-color="#5B61EB"/>
</linearGradient>
</defs>
</svg>
