<svg width="354" height="33" viewBox="0 0 354 33" fill="none" xmlns="http://www.w3.org/2000/svg">
<path opacity="0.3" d="M0.251229 29.8817L3.88181 31.7486L5.74877 28.1181L2.11819 26.2511L0.251229 29.8817ZM353.654 30.6361L352.136 26.8462L348.346 28.3639L349.864 32.1538L353.654 30.6361ZM3.15273 29.476C3.92326 29.2288 4.70664 28.9805 5.50268 28.7313L5.20389 27.777C4.40567 28.0269 3.62005 28.2759 2.84727 28.5238L3.15273 29.476ZM10.3738 27.2421C11.9444 26.7729 13.5572 26.3015 15.2108 25.8286L14.9359 24.8671C13.2786 25.3411 11.662 25.8136 10.0876 26.2839L10.3738 27.2421ZM20.0621 24.4697C21.669 24.0287 23.31 23.5872 24.9839 23.1459L24.7289 22.1789C23.0518 22.6211 21.4076 23.0634 19.7974 23.5053L20.0621 24.4697ZM29.854 21.8865C31.4634 21.4782 33.1002 21.0708 34.7635 20.6646L34.5263 19.6931C32.8601 20.1 31.2204 20.5082 29.6081 20.9172L29.854 21.8865ZM39.704 19.4808C41.3156 19.1019 42.9499 18.7246 44.6061 18.3495L44.3852 17.3742C42.7263 17.7499 41.0894 18.1278 39.4752 18.5073L39.704 19.4808ZM49.5902 17.2419C51.2053 16.8897 52.8395 16.54 54.4923 16.1929L54.2868 15.2143C52.6315 15.5618 50.9948 15.9121 49.3772 16.2648L49.5902 17.2419ZM59.4838 15.1649C61.1102 14.8365 62.7531 14.511 64.4121 14.1887L64.2214 13.2071C62.56 13.5298 60.9146 13.8558 59.2859 14.1847L59.4838 15.1649ZM69.4126 13.2367C71.0475 12.9317 72.6968 12.6302 74.3602 12.3323L74.184 11.348C72.5182 11.6463 70.8664 11.9483 69.2292 12.2537L69.4126 13.2367ZM79.3734 11.4536C81.0143 11.1721 82.668 10.8944 84.3338 10.6208L84.1718 9.63406C82.5036 9.90799 80.8476 10.1861 79.2043 10.468L79.3734 11.4536ZM89.3623 9.81373C91.0076 9.55572 92.6641 9.30191 94.3312 9.05258L94.1833 8.06358C92.5138 8.31326 90.855 8.56743 89.2074 8.82581L89.3623 9.81373ZM99.3644 8.31827C101.017 8.08324 102.679 7.85276 104.351 7.62709L104.217 6.63607C102.543 6.86206 100.878 7.09287 99.2236 7.32824L99.3644 8.31827ZM109.382 6.96633C111.044 6.75421 112.714 6.54699 114.392 6.34492L114.273 5.35209C112.592 5.55445 110.919 5.76196 109.256 5.97438L109.382 6.96633ZM119.421 5.75792C121.09 5.56913 122.768 5.38558 124.452 5.2075L124.347 4.21304C122.66 4.39138 120.98 4.5752 119.308 4.76425L119.421 5.75792ZM129.479 4.69478C131.156 4.52989 132.84 4.37056 134.53 4.217L134.44 3.2211C132.747 3.37488 131.06 3.53445 129.381 3.69958L129.479 4.69478ZM139.554 3.77944C141.235 3.63935 142.922 3.50512 144.614 3.37694L144.539 2.3798C142.844 2.50817 141.154 2.6426 139.471 2.78289L139.554 3.77944ZM149.646 3.01505C151.325 2.90068 153.01 2.79241 154.699 2.69045L154.639 1.69227C152.947 1.79438 151.26 1.90282 149.578 2.01736L149.646 3.01505ZM159.75 2.40539C161.429 2.31724 163.112 2.23546 164.799 2.16024L164.754 1.16123C163.064 1.23657 161.379 1.31848 159.698 1.40676L159.75 2.40539ZM169.864 1.95474C171.542 1.89345 173.224 1.83879 174.909 1.79096L174.881 0.79136C173.193 0.839273 171.509 0.894022 169.828 0.95541L169.864 1.95474ZM179.974 1.66812C181.655 1.63434 183.34 1.60749 185.027 1.58776L185.015 0.58783C183.325 0.607588 181.638 0.634482 179.954 0.668322L179.974 1.66812ZM190.085 1.55019C191.77 1.5449 193.458 1.54686 195.148 1.55627L195.153 0.556281C193.461 0.546859 191.77 0.544893 190.082 0.550194L190.085 1.55019ZM200.2 1.60667C201.887 1.63098 203.575 1.66285 205.264 1.70246L205.288 0.702737C203.595 0.663049 201.904 0.631125 200.215 0.606778L200.2 1.60667ZM210.315 1.84402C211.999 1.89898 213.684 1.96179 215.371 2.03264L215.413 1.03352C213.723 0.962539 212.035 0.899609 210.348 0.844551L210.315 1.84402ZM220.424 2.26911C222.106 2.3559 223.789 2.45085 225.472 2.55414L225.533 1.55602C223.847 1.45252 222.161 1.35739 220.476 1.27044L220.424 2.26911ZM230.522 2.88926C232.202 3.00918 233.882 3.1376 235.562 3.27469L235.643 2.278C233.96 2.14064 232.277 2.01196 230.593 1.8918L230.522 2.88926ZM240.601 3.71213C242.279 3.86667 243.958 4.03005 245.635 4.20246L245.737 3.2077C244.056 3.03493 242.375 2.8712 240.693 2.71634L240.601 3.71213ZM250.662 4.74668C252.337 4.93723 254.011 5.13697 255.684 5.34609L255.808 4.35382C254.131 4.14423 252.454 3.94405 250.775 3.75309L250.662 4.74668ZM260.698 6.00193C262.368 6.23004 264.037 6.46772 265.704 6.71513L265.851 5.72597C264.18 5.47798 262.508 5.23976 260.834 5.01113L260.698 6.00193ZM270.702 7.48737C272.366 7.7548 274.029 8.03217 275.689 8.31967L275.86 7.33433C274.196 7.04613 272.529 6.76809 270.86 6.50002L270.702 7.48737ZM280.664 9.21296C282.322 9.52156 283.978 9.84051 285.631 10.17L285.827 9.18929C284.17 8.85896 282.51 8.5392 280.847 8.22983L280.664 9.21296ZM290.581 11.1902C292.231 11.5416 293.877 11.9038 295.52 12.2768L295.742 11.3017C294.094 10.9276 292.443 10.5645 290.789 10.2122L290.581 11.1902ZM300.443 13.4302C302.081 13.826 303.715 14.233 305.345 14.6514L305.594 13.6827C303.959 13.2632 302.32 12.8551 300.677 12.4582L300.443 13.4302ZM310.236 15.9441C311.862 16.3865 313.483 16.8405 315.1 17.3063L315.377 16.3454C313.755 15.8782 312.129 15.4229 310.499 14.9792L310.236 15.9441ZM319.949 18.7435C321.562 19.2349 323.17 19.7384 324.772 20.2541L325.079 19.3021C323.471 18.7848 321.859 18.2798 320.241 17.7869L319.949 18.7435ZM329.569 21.8402C331.167 22.3827 332.759 22.9377 334.344 23.5054L334.681 22.564C333.09 21.9944 331.493 21.4375 329.891 20.8933L329.569 21.8402ZM339.083 25.2469C340.662 25.8423 342.235 26.4506 343.8 27.0722L344.169 26.1427C342.598 25.519 341.02 24.9086 339.436 24.3112L339.083 25.2469ZM348.479 28.9771C349.256 29.3013 350.03 29.6288 350.803 29.9596L351.197 29.0403C350.421 28.7083 349.644 28.3796 348.865 28.0543L348.479 28.9771Z" fill="white"/>
</svg>
